HIERARCHY
ROOT root
{
	OFFSET	0	13.1	24.9
	CHANNELS 6  Xposition Yposition Zposition Xrotation Yrotation Zrotation
	JOINT spine_1
	{
		OFFSET	0	9.99999	0
		CHANNELS 3  Xrotation Yrotation Zrotation
		JOINT spine_2
		{
			OFFSET	0	112	-10
			CHANNELS 3  Xrotation Yrotation Zrotation
			JOINT spine_3
			{
				OFFSET	0	206.5	19.3
				CHANNELS 3  Xrotation Yrotation Zrotation
				JOINT spine_4
				{
					OFFSET	0	110.4	14.6
					CHANNELS 3  Xrotation Yrotation Zrotation
					JOINT neck_1
					{
						OFFSET	0	71.8	-50.3
						CHANNELS 3  Xrotation Yrotation Zrotation
						JOINT neck_2
						{
							OFFSET	0	86.2	-25.8
							CHANNELS 3  Xrotation Yrotation Zrotation
							JOINT head_ee
							{
								OFFSET	0	179.8	-8.7
								CHANNELS 3  Xrotation Yrotation Zrotation
								End Site
								{
									OFFSET	1	0	0
								}
							}
						}
					}
					JOINT left_clavicle
					{
						OFFSET	-43.2	22.4	-70.8
						CHANNELS 3  Xrotation Yrotation Zrotation
						JOINT left_shoulder
						{
							OFFSET	-93.9	-5.79999	48.7
							CHANNELS 3  Xrotation Yrotation Zrotation
							JOINT left_elbow
							{
								OFFSET	-291.4	-30.8	15.2
								CHANNELS 3  Xrotation Yrotation Zrotation
								JOINT left_lowarm_twist
								{
									OFFSET	-110.7	-3.89999	13.6
									CHANNELS 3  Xrotation Yrotation Zrotation
									JOINT left_hand
									{
										OFFSET	-110.7	-3.89999	13.6
										CHANNELS 3  Xrotation Yrotation Zrotation
										JOINT left_ee
										{
											OFFSET	-80.8	-5.10001	12.1
											CHANNELS 3  Xrotation Yrotation Zrotation
											End Site
											{
												OFFSET	1	0	0
											}
										}
									}
								}
							}
						}
					}
					JOINT right_clavicle
					{
						OFFSET	43.2	22.4	-70.8
						CHANNELS 3  Xrotation Yrotation Zrotation
						JOINT right_shoulder
						{
							OFFSET	93.9	-5.79999	48.7
							CHANNELS 3  Xrotation Yrotation Zrotation
							JOINT right_elbow
							{
								OFFSET	291.4	-30.8	15.2
								CHANNELS 3  Xrotation Yrotation Zrotation
								JOINT right_lowarm_twist
								{
									OFFSET	110.7	-3.89999	13.6
									CHANNELS 3  Xrotation Yrotation Zrotation
									JOINT right_hand
									{
										OFFSET	110.7	-3.89999	13.6
										CHANNELS 3  Xrotation Yrotation Zrotation
										JOINT right_ee
										{
											OFFSET	80.8	-5.10001	12.1
											CHANNELS 3  Xrotation Yrotation Zrotation
											End Site
											{
												OFFSET	1	0	0
											}
										}
									}
								}
							}
						}
					}
				}
			}
		}
	}
	JOINT left_hip
	{
		OFFSET	-82.8	-127.5	0.300001
		CHANNELS 3  Xrotation Yrotation Zrotation
		JOINT left_knee
		{
			OFFSET	-28.2	-396.7	2.2
			CHANNELS 3  Xrotation Yrotation Zrotation
			JOINT left_ankle
			{
				OFFSET	-11.7	-411.3	35.4
				CHANNELS 3  Xrotation Yrotation Zrotation
				JOINT left_toes
				{
					OFFSET	0	-60	-88.6
					CHANNELS 3  Xrotation Yrotation Zrotation
					JOINT left_foot_ee
					{
						OFFSET	-22.5	-16.5	-42.2
						CHANNELS 3  Xrotation Yrotation Zrotation
						End Site
						{
							OFFSET	1	0	0
						}
					}
				}
			}
		}
	}
	JOINT right_hip
	{
		OFFSET	82.8	-127.5	0.300001
		CHANNELS 3  Xrotation Yrotation Zrotation
		JOINT right_knee
		{
			OFFSET	28.2	-396.7	2.2
			CHANNELS 3  Xrotation Yrotation Zrotation
			JOINT right_ankle
			{
				OFFSET	11.7	-411.3	35.4
				CHANNELS 3  Xrotation Yrotation Zrotation
				JOINT right_toes
				{
					OFFSET	0	-60	-88.6
					CHANNELS 3  Xrotation Yrotation Zrotation
					JOINT right_foot_ee
					{
						OFFSET	22.5	-16.5	-42.2
						CHANNELS 3  Xrotation Yrotation Zrotation
						End Site
						{
							OFFSET	1	0	0
						}
					}
				}
			}
		}
	}
}
MOTION
Frames: 13
Frame Time: 0.02
426.045 733.016 -627.212 175.742 -67.6493 -178.534 -0.920843 -0.117752 -1.63969 -0.919347 -0.0131903 -1.64386 -0.917945 0.358445 -1.60437 -0.921524 0.100603 -1.64083 -18.9347 7.06197 16.6263 -18.183 4.83812 18.1969 -0.0 0.0 -0.0 10.2038 8.54829 19.4003 -11.5391 -28.4481 47.7322 1.39785 -34.6989 0.436724 34.0921 -0.0781476 -4.29076 -1.27143 15.7781 -1.39414 -0.0 0.0 -0.0 9.77049 -1.39953 -19.1128 -27.3332 17.8787 -52.807 0.859572 23.0644 -0.175388 42.0519 0.46027 5.23328 7.40173 26.5459 -38.6389 0.0 0.0 0.0 -8.00729 52.3888 -0.813803 4.58778 -0.215927 -0.670584 18.7424 -29.8966 -3.22494 3.44485 -0.0 -0.0 -0.0 0.0 -0.0 20.4663 9.85201 -10.6194 -41.6516 0.575167 -6.22791 23.4739 -13.5176 3.17357 -1.35232 0.0 0.0 0.0 0.0 0.0 
430.558 732.922 -628.228 174.015 -67.6479 179.9 -0.946718 -0.331859 -1.64226 -0.945247 -0.2267 -1.66004 -0.937426 0.154591 -1.6683 -0.941293 -0.110788 -1.67178 -21.6337 6.58905 16.8419 -20.8662 4.65652 18.453 -0.0 0.0 -0.0 10.2674 8.17415 19.5617 -10.2261 -28.2857 47.0387 1.42039 -35.129 0.449627 33.5357 -0.0563944 -4.22306 -1.17575 13.3082 -1.90817 -0.0 0.0 -0.0 9.81372 -1.8306 -19.1768 -28.1077 19.2194 -52.0659 0.815468 21.9966 -0.158488 42.7926 0.502433 5.31814 7.35572 26.556 -38.2706 0.0 0.0 0.0 -8.33847 52.1787 -1.02018 3.60351 -0.165077 -0.528175 20.4253 -29.736 -3.47336 3.42192 -0.0 -0.0 -0.0 0.0 -0.0 21.9786 9.08644 -10.2739 -43.02 0.669988 -6.41579 26.6958 -12.3152 3.54298 -0.722145 0.0 0.0 0.0 0.0 0.0 
439.737 734.242 -630.533 172.987 -68.465 178.71 -1.01456 -0.515226 -1.6197 -1.01319 -0.41113 -1.64919 -0.999952 -0.0257397 -1.69946 -1.00386 -0.293777 -1.67408 -20.6452 6.24627 16.6397 -19.8855 3.7855 18.0337 -0.0 0.0 -0.0 10.2619 7.94469 19.575 -9.16109 -28.7269 47.0839 1.47863 -36.2193 0.48359 33.9078 -0.0708672 -4.26835 -1.19909 14.4798 -1.52949 -0.0 0.0 -0.0 9.64531 -2.30301 -18.8095 -27.0691 16.8361 -52.6087 0.785689 21.2663 -0.14751 42.6136 0.492142 5.29768 7.35792 26.5877 -38.2607 0.0 0.0 0.0 -11.8518 53.9274 1.61496 2.98772 -0.134515 -0.438653 21.2931 -30.2271 -3.62552 3.56281 -0.0 -0.0 -0.0 0.0 -0.0 23.6259 10.1636 -10.7005 -38.6441 0.382767 -5.80753 26.8045 -12.7672 3.55835 -1.99195 0.0 0.0 0.0 0.0 0.0 
450.479 731.899 -630.163 171.463 -68.4859 176.842 -1.06497 -0.627038 -1.54048 -1.0638 -0.527755 -1.57724 -1.04788 -0.154327 -1.656 -1.05147 -0.41389 -1.61087 -22.8469 6.28746 16.5454 -22.1093 4.57997 18.1778 -0.0 0.0 -0.0 10.2901 7.81317 19.6428 -8.23194 -28.8582 46.6238 1.54906 -37.4985 0.525839 33.1682 -0.0423877 -4.17822 -0.8991 10.6423 -1.33705 -0.0 0.0 -0.0 9.55713 -4.06825 -18.5253 -27.622 17.4304 -52.2023 0.747594 20.3214 -0.133986 42.721 0.498306 5.30996 7.45183 26.664 -38.9296 0.0 0.0 0.0 -13.5592 53.0692 2.01597 2.91101 -0.130775 -0.427479 22.1788 -30.2958 -3.75943 3.7792 -0.0 -0.0 -0.0 0.0 -0.0 26.5157 10.7798 -12.6773 -38.7974 0.392034 -5.82919 28.234 -9.18392 3.70094 -0.653132 0.0 0.0 0.0 0.0 0.0 
458.243 732.242 -630.6 171.725 -68.198 176.668 -0.962244 -0.43865 -1.58551 -0.960908 -0.336885 -1.6102 -0.950165 0.0363065 -1.64465 -0.95387 -0.223856 -1.62976 -23.9158 6.13869 16.4802 -23.188 4.63736 18.1716 -0.0 0.0 -0.0 10.0088 7.64269 19.1182 -7.56741 -29.0295 46.1418 1.74007 -40.7571 0.646429 33.2967 -0.0472499 -4.1939 -0.83727 9.12796 -1.60234 -0.0 0.0 -0.0 9.40852 -5.04378 -18.1674 -28.0979 17.9413 -51.8657 0.704087 19.228 -0.119266 42.157 0.466186 5.24535 7.43651 26.5823 -38.8802 0.0 0.0 0.0 -14.7389 53.22 3.20725 3.07126 -0.138604 -0.450818 20.7106 -30.2141 -3.53803 3.49539 -0.0 -0.0 -0.0 0.0 -0.0 28.1659 11.2022 -13.3248 -37.2143 0.299119 -5.60433 27.0196 -7.62065 3.56196 -1.00146 0.0 0.0 0.0 0.0 0.0 
466.081 731.254 -631.127 171.633 -68.5079 176.243 -0.892659 -0.570132 -1.46166 -0.891596 -0.475978 -1.49497 -0.878002 -0.127285 -1.56372 -0.88122 -0.37262 -1.52401 -24.6051 6.37382 16.7206 -23.8663 5.19257 18.5876 -0.0 0.0 -0.0 9.8109 7.44462 18.7565 -6.47777 -29.271 45.7396 1.7509 -40.9329 0.65351 33.0893 -0.0394169 -4.16858 -0.719292 7.10058 -1.72032 -0.0 0.0 -0.0 9.32073 -6.05191 -17.9256 -28.3328 17.962 -51.7475 0.687846 18.816 -0.113972 42.292 0.473818 5.26085 7.481 26.6521 -39.1693 0.0 0.0 0.0 -15.7827 53.5707 4.02722 3.11226 -0.140618 -0.456784 20.6947 -29.9837 -3.52495 2.66628 -0.0 -0.0 -0.0 0.0 -0.0 28.3133 12.0541 -14.2504 -29.8832 -0.0485241 -4.53406 26.1583 -5.32596 3.46456 -1.61862 0.0 0.0 0.0 0.0 0.0 
474.472 732.246 -630.764 172.898 -69.0598 177.535 -0.76847 -0.398991 -1.46057 -0.767335 -0.305254 -1.48299 -0.758422 0.0332646 -1.51371 -0.761561 -0.206187 -1.49997 -26.1732 5.5277 15.2889 -25.557 4.57488 17.0562 -0.0 0.0 -0.0 9.80009 7.38775 18.7408 -4.94404 -29.5536 45.8633 1.91641 -43.5066 0.764758 32.1256 -0.0042202 -4.05055 -0.499029 2.81391 -2.12313 -0.0 0.0 -0.0 9.14491 -8.61968 -17.391 -28.7378 18.1997 -51.5182 0.658084 18.0558 -0.10456 42.3934 0.47957 5.27247 7.75671 26.5281 -41.4822 0.0 0.0 0.0 -16.6268 53.745 4.75666 3.19462 -0.144676 -0.468768 21.3463 -30.0237 -3.62373 1.43516 -0.0 -0.0 -0.0 0.0 -0.0 28.4296 12.9207 -14.532 -22.9097 -0.249746 -3.48343 20.1066 -3.94941 2.74807 -1.53101 0.0 0.0 0.0 0.0 0.0 
483.083 730.356 -631.728 172.287 -70.7981 176.547 -0.6492 -0.332458 -1.3383 -0.648237 -0.246632 -1.35674 -0.641605 0.0594495 -1.37769 -0.644219 -0.158856 -1.36979 -25.9619 5.14447 15.2414 -25.3369 3.79727 16.7935 -0.0 0.0 -0.0 9.75259 7.07075 18.6776 -3.59514 -29.7905 46.0122 2.11944 -46.3889 0.908232 31.3573 0.0224145 -3.95603 -0.267177 -0.716139 -2.08985 -0.0 0.0 -0.0 8.75166 -10.5041 -16.5068 -30.186 19.3416 -51.176 0.66863 18.326 -0.107852 42.5463 0.488288 5.28998 8.0731 25.7545 -44.8408 0.0 0.0 0.0 -17.2805 54.1351 5.33521 3.10423 -0.140224 -0.455617 22.0422 -30.0376 -3.72678 -0.715218 0.0 0.0 -0.0 0.0 -0.0 28.693 14.119 -13.6469 -16.156 -0.321604 -2.45024 11.8702 -2.70773 1.68257 -1.90373 0.0 0.0 0.0 0.0 0.0 
494.573 725.064 -634.152 174.277 -71.0865 178.506 -0.582016 -0.307952 -1.39814 -0.580955 -0.21837 -1.4149 -0.574746 0.0982156 -1.42828 -0.577571 -0.128563 -1.42586 -26.631 4.5429 12.1063 -26.251 4.02221 13.6613 -0.0 0.0 -0.0 9.83845 7.67417 18.7882 -2.17247 -29.9444 46.3543 2.34578 -49.2788 1.07605 30.9704 0.0353452 -3.90831 -0.111008 -4.24718 -2.54658 -0.0 0.0 -0.0 8.61231 -12.026 -16.1241 -29.5406 18.2177 -51.06 0.685285 18.7509 -0.113148 42.6663 0.495164 5.30371 8.24752 25.9128 -46.1865 0.0 0.0 0.0 -17.6591 54.0026 5.2653 2.97059 -0.133678 -0.436158 22.0774 -30.3788 -3.74868 0.0278713 -0.0 -0.0 -0.0 0.0 -0.0 28.9798 15.6502 -13.1464 -12.3241 -0.30812 -1.86258 10.662 1.54425 1.53249 -1.87087 0.0 0.0 0.0 0.0 0.0 
506.354 724.126 -637.738 174.834 -72.6088 178.826 -0.545777 -0.39272 -1.34248 -0.544827 -0.306507 -1.36474 -0.536721 0.000247961 -1.39873 -0.539383 -0.220638 -1.38122 -25.8431 4.34505 10.5213 -25.5636 4.11724 12.0116 -0.0 0.0 -0.0 9.98066 6.89145 19.1341 -1.35417 -30.326 46.3968 2.56447 -51.7825 1.24491 30.6443 0.0459909 -3.86803 0.0448691 -6.87653 -2.6153 -0.0 0.0 -0.0 8.4433 -13.0547 -15.7337 -29.9862 18.0755 -50.9102 0.69729 19.0558 -0.117037 42.7597 0.500535 5.31438 8.4341 25.5088 -48.2511 0.0 0.0 0.0 -18.2657 54.0791 5.7447 2.67004 -0.119125 -0.392345 22.3161 -30.55 -3.79224 -0.184641 0.0 0.0 -0.0 0.0 -0.0 29.4717 17.2076 -12.7718 -8.58041 -0.257043 -1.29052 7.70834 5.03775 1.13338 -2.03162 0.0 0.0 0.0 0.0 0.0 
516.019 725.262 -640.912 175.187 -73.6409 178.745 -0.531146 -0.471506 -1.44646 -0.530062 -0.378519 -1.47352 -0.519365 -0.0466385 -1.52064 -0.522478 -0.286183 -1.4942 -26.4371 4.37342 10.0108 -26.1949 4.47665 11.6115 -0.0 0.0 -0.0 10.1902 5.83256 19.6383 -0.578573 -30.5974 46.9519 2.64507 -52.6404 1.30861 31.1163 0.0305047 -3.92632 0.0470638 -7.6538 -2.93191 -0.0 0.0 -0.0 8.28044 -13.774 -15.3859 -30.229 17.6182 -50.8271 0.641231 17.6224 -0.0993972 43.8755 0.566039 5.44122 8.51066 25.4824 -48.9724 0.0 0.0 0.0 -18.4467 54.0594 6.25653 2.46558 -0.109356 -0.362497 23.6121 -31.8541 -4.05086 -0.320412 0.0 0.0 -0.0 0.0 -0.0 29.6033 18.277 -12.1356 -6.28829 -0.207361 -0.942307 4.04323 7.7703 0.609116 -2.70405 0.0 0.0 0.0 0.0 0.0 
525.031 723.932 -643.83 176.121 -74.9655 179.435 -0.532868 -0.494051 -1.57596 -0.531572 -0.39278 -1.60419 -0.519445 -0.0319394 -1.65126 -0.523132 -0.292289 -1.6255 -24.0935 5.05535 9.02192 -23.923 5.82684 10.813 -0.0 0.0 -0.0 10.5241 3.34539 20.5141 -0.537823 -30.6333 46.2378 2.69654 -53.1712 1.34967 31.1703 0.0287045 -3.93298 0.104887 -9.06296 -3.14228 -0.0 0.0 -0.0 8.08167 -12.7772 -15.1248 -30.8618 17.8403 -50.9686 0.638689 17.5568 -0.098629 44.0772 0.578147 5.46402 8.72287 25.0485 -51.4257 0.0 0.0 0.0 -19.4076 54.0054 6.64342 2.01296 -0.0881117 -0.296302 24.8314 -32.2287 -4.24832 -0.392492 0.0 0.0 -0.0 0.0 -0.0 30.657 19.6313 -11.0602 -3.63333 -0.132451 -0.54178 1.48459 11.5404 0.2302 -3.31739 0.0 0.0 0.0 0.0 0.0 
533.472 720.565 -645.438 177.733 -75.2871 -179.145 -0.569684 -0.439196 -1.70704 -0.568124 -0.329699 -1.73151 -0.556897 0.0586785 -1.76164 -0.56116 -0.220232 -1.74881 -24.5626 4.95378 8.86551 -24.4009 5.76944 10.6646 -0.0 0.0 -0.0 10.5816 1.20278 20.7873 0.416021 -30.122 45.5559 2.83939 -54.5784 1.46506 31.4144 0.0204781 -3.96307 0.179193 -11.0361 -3.48278 -0.0 0.0 -0.0 8.04267 -12.5825 -15.0719 -31.0819 17.4487 -50.9781 0.570122 15.771 -0.0789646 43.47 0.541949 5.39527 8.56448 23.9556 -51.1196 0.0 0.0 0.0 -19.8877 53.9507 7.2853 1.75026 -0.0760213 -0.257808 26.1915 -32.2142 -4.43927 -0.396641 0.0 0.0 -0.0 0.0 -0.0 31.3564 19.8579 -10.5762 -1.73168 -0.0674182 -0.25719 0.454721 12.3101 0.0710623 -2.74905 0.0 0.0 0.0 0.0 0.0 
